/* XPM */
static char * img_collectible2_bonus_xpm[] = {
"32 32 211 2",
"  	c #252525",
". 	c #081D43",
"+ 	c #0F3780",
"@ 	c #3E78E0",
"# 	c #505863",
"$ 	c #FF6200",
"% 	c #B96C33",
"& 	c #3A3E45",
"* 	c #FFF100",
"= 	c #020001",
"- 	c #293D5B",
"; 	c #681A6F",
"> 	c #1B2945",
", 	c #192744",
"' 	c #223352",
") 	c #511D5B",
"! 	c #434008",
"~ 	c #0C1326",
"{ 	c #13203B",
"] 	c #2E3E5F",
"^ 	c #250C1A",
"/ 	c #92613A",
"( 	c #B07A4B",
"_ 	c #182237",
": 	c #2C405F",
"< 	c #7A4F2C",
"[ 	c #A36F44",
"} 	c #CF925D",
"| 	c #CE915C",
"1 	c #643E1E",
"2 	c #314062",
"3 	c #2D3C5C",
"4 	c #233451",
"5 	c #C58A57",
"6 	c #DC9D66",
"7 	c #DD9E67",
"8 	c #D99B64",
"9 	c #8F6038",
"0 	c #2F3E5E",
"a 	c #334365",
"b 	c #334366",
"c 	c #15223D",
"d 	c #101B33",
"e 	c #20233D",
"f 	c #A47044",
"g 	c #E2A26A",
"h 	c #F2B177",
"i 	c #F3B177",
"j 	c #F1B076",
"k 	c #BF8654",
"l 	c #2A3959",
"m 	c #22304F",
"n 	c #22314F",
"o 	c #875A34",
"p 	c #EAAB73",
"q 	c #DA9B65",
"r 	c #BE8553",
"s 	c #324264",
"t 	c #202E4C",
"u 	c #2B1F45",
"v 	c #D2945F",
"w 	c #DB9C65",
"x 	c #EDAC73",
"y 	c #DCA16C",
"z 	c #F3B278",
"A 	c #DE9F68",
"B 	c #D3955F",
"C 	c #2A3958",
"D 	c #001D2C",
"E 	c #CD905C",
"F 	c #D69861",
"G 	c #F4B278",
"H 	c #E9A970",
"I 	c #D59760",
"J 	c #BF8554",
"K 	c #2E3C5D",
"L 	c #334466",
"M 	c #243251",
"N 	c #D4965F",
"O 	c #CC905B",
"P 	c #A9764A",
"Q 	c #885C37",
"R 	c #D69862",
"S 	c #B78051",
"T 	c #3E838F",
"U 	c #334264",
"V 	c #2B3A5A",
"W 	c #15223E",
"X 	c #0B2838",
"Y 	c #EDAD73",
"Z 	c #C78C5A",
"` 	c #B67F50",
" .	c #44919B",
"..	c #44929C",
"+.	c #43929B",
"@.	c #438F9A",
"#.	c #264D5E",
"$.	c #244A5C",
"%.	c #2D415F",
"&.	c #273555",
"*.	c #18203D",
"=.	c #2E4160",
"-.	c #542663",
";.	c #D59660",
">.	c #E0A169",
",.	c #C58D5C",
"'.	c #BB8555",
").	c #BE8757",
"!.	c #E4A46C",
"~.	c #D49661",
"{.	c #986B4D",
"].	c #44929D",
"^.	c #45939D",
"/.	c #45949E",
"(.	c #367581",
"_.	c #263555",
":.	c #172844",
"<.	c #283757",
"[.	c #263554",
"}.	c #5A2969",
"|.	c #D69760",
"1.	c #C08655",
"2.	c #C28855",
"3.	c #C18755",
"4.	c #D0935F",
"5.	c #375D75",
"6.	c #44919C",
"7.	c #3A7C87",
"8.	c #273655",
"9.	c #1A2846",
"0.	c #303F60",
"a.	c #293858",
"b.	c #3D204D",
"c.	c #E5A56C",
"d.	c #D59761",
"e.	c #DFA069",
"f.	c #F0AF75",
"g.	c #EBAC73",
"h.	c #62696A",
"i.	c #4F5B66",
"j.	c #3A7183",
"k.	c #387884",
"l.	c #1A2845",
"m.	c #1C2A48",
"n.	c #304061",
"o.	c #293A59",
"p.	c #D19561",
"q.	c #D29560",
"r.	c #D79962",
"s.	c #AF7C4F",
"t.	c #C9C96F",
"u.	c #D7D780",
"v.	c #C5C56A",
"w.	c #797B59",
"x.	c #4F8F94",
"y.	c #40919D",
"z.	c #3F919D",
"A.	c #43929C",
"B.	c #2D3D60",
"C.	c #00202C",
"D.	c #AF794B",
"E.	c #EAAA71",
"F.	c #D79B66",
"G.	c #D5D57F",
"H.	c #D3D37D",
"I.	c #CECD73",
"J.	c #A7B16E",
"K.	c #9CA96C",
"L.	c #9DAA6B",
"M.	c #619893",
"N.	c #42919B",
"O.	c #42929D",
"P.	c #98A76F",
"Q.	c #9B9C4F",
"R.	c #61654B",
"S.	c #172542",
"T.	c #D79C67",
"U.	c #DA9C65",
"V.	c #E4A56D",
"W.	c #E6A66E",
"X.	c #E0A36C",
"Y.	c #B6B656",
"Z.	c #D3D37C",
"`.	c #D1D17B",
" +	c #CCCE7D",
".+	c #609996",
"++	c #7F9E82",
"@+	c #A5A854",
"#+	c #A9AA4C",
"$+	c #8F9048",
"%+	c #2F3C59",
"&+	c #A37146",
"*+	c #D4955F",
"=+	c #B3B350",
"-+	c #B2B24F",
";+	c #B9B95B",
">+	c #CACA72",
",+	c #CACA71",
"'+	c #CBCB72",
")+	c #C1C164",
"!+	c #989A3B",
"~+	c #1E3A54",
"{+	c #314162",
"]+	c #A67246",
"^+	c #C38856",
"/+	c #B4B44F",
"(+	c #B2B24E",
"_+	c #7A7D2B",
":+	c #2F4060",
"<+	c #5F3C4E",
"[+	c #001F2E",
"                                      . . . . + + @ @ . . . . . ",
"                # # # $ $ $ $ $   # # # # # # + + + + + . @ @ . ",
"% % % % & & & & & & $ $ * * * $ $ $ & & & &             + + + . ",
"& & & % % % & & & $ $ * * = * * * $ & & & & & & & & & & & + @ . ",
"          & % & $ $ * * = = = = * $ $ & & & & & & &     . + @ . ",
"    # # # $ $ $ $ * * = = - ; = * * $ $ # # # # # # # # . + + @ ",
"  # # $ $ $ * * * * = = > , ' ) = * * $ $ # # # # # # # # # + + ",
"! # $ $ * * * = = = = ~ = = { ] = = * * $ $ # # # # # # # # # . ",
"! $ $ * * = ^ = / ( = = = = = _ : = = * * $                   . ",
"$ $ * * = = < [ } | 1 = 2 3 = = = 4 = = * $ $ & # # # # # # # . ",
"$ * * = = 5 6 7 7 8 9 = 0 a b = c d e = * * $ $ .             . ",
"$ * = = f g h i i j k = 0 a a a l m n = = * * $ + .           . ",
"* * = o | p h h h q r = 0 a a a a s t u = = * $ $ +   $ $ $ $ $ ",
"* = = v w x y z A B r = C a a a a a a t D = * * $ $ $ $ * * * * ",
"* = E F y = = G H I J = = = K L a a a s M = = * * $ * * * = = = ",
"= = N O = P Q z h R S = = T = = s U a a V W = = * * * = = = X = ",
"= N B Y = Z = z h R ` =  ...+.@.#.$.%.a a &.*.= * = = = 0 =.-.= ",
"= ;.>.,.'.).!.h h ~.{.= @.....].^./.(.l L a _.= = :.<.&.[.}.= * ",
"= |.= 1.2.3.6 h h 4.= = 5.6...........7.= a U 8.= 9.0.a.b.= = * ",
"= c.P d.h e.R f.g.= = h.= i.j. .........k.= = l.m.n.o.= = * * * ",
"= p.q.r.z z d.>.s.= t.u.v.= w.x.y.z.A.....^.= = B.V C.= * * $ $ ",
"= D.3.E.E.6 F F.= = G.G.G.H.I.J.K.L.M...N.O.P.Q.R.S.= = * $ $ & ",
"= = T.U.V.W.X.= = Y.H.G.G.G.G.H.Z.`. +.+++@+#+$+%+0.= * * $ # & ",
"* = &+B *+2.= = =+-+;+>+,+,+,+'+'+)+!+= = = = = ~+{+= * * $ # # ",
"* = = ]+^+= = /+=+=+=+-+-+(+/+_+= = = = * * * = = :+= = * $ $   ",
"* * = = = = = = = = = = <+= = = = * * * * $ * * = = [+= * * $ # ",
"$ * * * * * * * * * * = = = * * * * $ $ $ $ $ * * = = = = * $ ! ",
"$ $ $ $ $ $ $ $ $ $ * * * * * $ $ $ $ & & # $ $ * * * = = * $   ",
". .             & $ $ $ $ $ $ $ # # #   & & & $ $ $ * * * * $ . ",
". .   & & & & & & & & & & & & & & &     # # # & & $ $ $ $ $ $ . ",
"+ @ . . # # # # # # # # # # # &       & & & & & & & &     . + + ",
". . . + . . . . . # # # # #                 . . . . @ @ @ + . . "};
