/* XPM */
static char * img_enemy_xpm[] = {
"32 32 32 1",
" 	c #252525",
".	c #081D43",
"+	c #0F3780",
"@	c #3E78E0",
"#	c #FF0000",
"$	c #505863",
"%	c #020001",
"&	c #3A3E45",
"*	c #4E0B0B",
"=	c #951515",
"-	c #EE2222",
";	c #C85050",
">	c #000000",
",	c #FF6666",
"'	c #CB4E60",
")	c #EF2142",
"!	c #F1A26D",
"~	c #320032",
"{	c #F29B84",
"]	c #F7E0D1",
"^	c #CE4C70",
"/	c #FFFFFF",
"(	c #5DBCB9",
"_	c #F39A88",
":	c #6EB8BD",
"<	c #434008",
"[	c #D24984",
"}	c #DC42A6",
"|	c #CF4B77",
"1	c #CF4C76",
"2	c #D9449B",
"3	c #C40FA3",
"                   ....++@@.....",
"   #######$      $$$$$######.@@.",
"$$##%%%%%###&&&&&&&&###%%%%###+.",
"&##%%***%%%##&&&&&&##%%****%%##.",
"##%%*==-=*%%##&&&&&#%**==-=*%%##",
"#%%*=;--==*%%#&$&$##>**==--=*%%#",
"#%*=;,-=***>##&$&$#%%%%===-;=*%#",
"%%*-,;=*%%%%#$&$&$#####%==;,;*%%",
"%*=;,-*>######$&& #####%**-,;=*%",
"%*=--=*%##%%%#  ..#%%%#%>*=--=*%",
"%*=--=*%#%'=%#&&&&#%='%#%*=--=*%",
"%*=-=*>%#%-=%# && #%=-%#%**=-=*%",
"%*=-=*>%%)=*%##&&##%*=)%%>*=-=*%",
"%*===*>=-=*>%%####%%*==-=>*===*%",
"#%*=*>===*>#%,%##%,%%>*===>***%#",
"#%;;>===*>##%-%##%-%#%%*==*>;;%#",
"#%;!;**%%#%%=-%%%%-=%%#%~**;!;%#",
"#%{]!!^%#%]/(=-%%-=(/]%#%^!!]{%#",
"##%;!;%#%(/]/(=-;=(/]/(%#%;!;%##",
".#%%;%%#%(/.]/*,,*/]./(%#%%;%%#&",
".#%_];%#%:]]]]*,,*]]]]:%#%;]_%#&",
"<##%!!;%#%;***=--=***;%#%;!!%##&",
" $#%=!!;%%];==--====;][%;!!=%#$&",
" ##%!;==;!]!!!;==;!!!]!;==;!%##$",
" #%%!!!=;;;!]]!!!!]]!;;;=!!!}%##",
"##%%!!;%%;;;;;]]]];;;;;%%!!!!%%#",
"#%};;!%%%|;!;;;;;;;;!;|%%;!!!}%%",
"%%;=;!%##%%1;;%%%%;;1%%#%%!!=;2%",
"%=;;;%%###%%%%####%%%%###%%;;;=%",
"#%3;=%%#&######&&######&##%=;%%%",
"##%%%%##$$$$$$$&   &&&&&&#%%%%##",
".######..$$$$$        ...######."};
