/* XPM */
static char * img_enemy_2_bonus_xpm[] = {
"32 32 32 1",
" 	c #252525",
".	c #FF0000",
"+	c #081D43",
"@	c #020001",
"#	c #505863",
"$	c #3E78E0",
"%	c #4E0B0B",
"&	c #3A3E45",
"*	c #951515",
"=	c #EE2222",
"-	c #C85050",
";	c #000000",
">	c #FF6666",
",	c #17191D",
"'	c #232323",
")	c #242424",
"!	c #515863",
"~	c #383B42",
"{	c #F1A26D",
"]	c #F29B84",
"^	c #F7E0D1",
"/	c #FFFFFF",
"(	c #5DBCB9",
"_	c #F39A88",
":	c #6EB8BD",
"<	c #434008",
"[	c #D24984",
"}	c #DC42A6",
"|	c #CF4B77",
"1	c #CF4C76",
"2	c #C40FA3",
"3	c #0F3780",
"   .......         +++......++++",
"  ..@@@@@...     ###...@@@@...$+",
"#..@@%%%@@@..&&&&&&..@@%%%%@@..+",
"..@@%**=*%@@..&&&&&.@%%**=*%@@..",
".@@%*-==**%@@.&&&&..;%%**==*%@@.",
".@%*->=*%%%;..&#&#.@@@@***=-*%@.",
"@@%=>-**,,@@.#&#&#....;***->-%@@",
"@%*->=*;.....#&#&####.;***=>-*%@",
"@%*==**;.#'   #&&  )).;**;;==*%@",
"@%*=;;*;..!##   +++++.;;**;==*%@",
"@%*=;***;.&&&&&&&&&##..;**%;=*%@",
"@%*=;***;.&&...&&.... .;***;=*%@",
"@%*;;***;.&..;....@@.&.;***;**%@",
".@%*****;.~.@>@..@>@.#.;***;%%@.",
".@--***;;...@=@..@=@...;***;;-@.",
".@-{-%;;..@@*=@@@@=*@@.@***-;-@.",
".@]^{;;..@^/(*=@@=*(/^@.@*{{^]@.",
"..@-**@.@(/^/(*=-*(/^/(@.@-{-@..",
"+.@@-@@.@;;(^/%>>%;;(/(@.@@-@@.&",
"+.@_^-@.@:^^^^%>>%^^^^:@.@-^_@.&",
"+..@{{-@.@-%%%*==*%%%-@.@-{{@..&",
"<+.@*{{-@@^-**==****-^[@-{{*@.&&",
" ..@{-**-{^{{{-**-{{{^{-**-{@..&",
" .@@{{{*---{^^{{{{^^{---*{{{}@..",
"..@;***@@-----^^^^-----@@*****@.",
".@;***@@@|-{--------{-|@@*;;*}*@",
"@@;****;.@@1--@@@@--1@@.;**;;**@",
"@;*-;;*;..@@@@....@@@@.;;;*;.;*@",
".@2-;;**;......##.....;****;..;@",
"..@@@@;**;.&&&&&&&  #.;;;;;;....",
"3......;;;.####&   &&........+33",
"+++3+++++#####        ++++$$$3++"};
