/* XPM */
static char * player2_reverse_bonus_xpm[] = {
"32 32 16 1",
" 	c #081D43",
".	c #FF0000",
"+	c #0F3780",
"@	c #252525",
"#	c #3E78E0",
"$	c #000000",
"%	c #505863",
"&	c #4E2709",
"*	c #3A3E45",
"=	c #B96C33",
"-	c #F3954E",
";	c #EC5D5D",
">	c #FA8686",
",	c #FFFFFF",
"'	c #020001",
")	c #434008",
"    ....+    @@@@@@@@@@@@@@@@@@@",
" ##..$$..%%%%%%@@@@@@%%%@@@@@@@@",
" ++.$&&$..**************.....%%%",
" #..$&&$$......***.......$$$..**",
" #.$&&$$$$$$$$.....$$$$$$===$.@@",
"#+.$&$$$$&&&&&$$$$$&&&&$$--=$..@",
"++.$$$$&&&--&&&&&&&&$$&$$----$.@",
" %.$$$&&&--&&&--&&$$$$&$$$=--$..",
" @.$&&&&--&&&--&&&$$;;$$.$====$.",
" %.$--&--&&&--&&&$$;>;$$..$--=$.",
" @.$$$$----------$$;>;$$..$---$.",
" @.$$-$-----==--$$;>;$$...$=--$.",
"...$--$----$$$==$$;>;$$.%.$=--$.",
".$$$--$---=$-$$=$$$;$$....$===$.",
"...-..=---=$--$$--$$$$...$---=$.",
".$$$$,,,--=---------$$$$$----=$.",
"...$,,,--,=---..----$===$$-=-$..",
"**.$,,,$$,,,==,,----$--===$-$$. ",
"*%..$=,,,,,,,,,,,$$$-------$$.. ",
"***..$==,,,,,,,,,,,==------=$.. ",
"***@..$$$,,,,,,,=$$$=------=='. ",
"**.......''&======--===-----='.)",
"*..''&&&&=----=-====-------==$.@",
"%.',&=--------=&=-==-------='..@",
"@.',,-------=&&===------=-&&$$..",
"%.',,---=====&&&&------=&=--&&$.",
")..',,,''&&--&'$&------&=-----$.",
"@@..','.'----&'$',,---&$----,,$.",
" @*.''..',,-,'..',,,,,$$==-,,''.",
"   ....',,,,,'..',,,,,'''',,'...",
"++ @@*.''''''....'''''...''$..#+",
"  +###........@@....... .....   "};
