/* XPM */
static char * img_collectible_xpm[] = {
"32 32 209 2",
"  	c #252525",
". 	c #081D43",
"+ 	c #0F3780",
"@ 	c #3E78E0",
"# 	c #505863",
"$ 	c #3A3E45",
"% 	c #FFF100",
"& 	c #020001",
"* 	c #293D5B",
"= 	c #681A6F",
"- 	c #1B2945",
"; 	c #192744",
"> 	c #223352",
", 	c #511D5B",
"' 	c #434008",
") 	c #0C1326",
"! 	c #13203B",
"~ 	c #2E3E5F",
"{ 	c #250C1A",
"] 	c #92613A",
"^ 	c #B07A4B",
"/ 	c #182237",
"( 	c #2C405F",
"_ 	c #7A4F2C",
": 	c #A36F44",
"< 	c #CF925D",
"[ 	c #CE915C",
"} 	c #643E1E",
"| 	c #314062",
"1 	c #2D3C5C",
"2 	c #233451",
"3 	c #C58A57",
"4 	c #DC9D66",
"5 	c #DD9E67",
"6 	c #D99B64",
"7 	c #8F6038",
"8 	c #2F3E5E",
"9 	c #334365",
"0 	c #334366",
"a 	c #15223D",
"b 	c #101B33",
"c 	c #20233D",
"d 	c #A47044",
"e 	c #E2A26A",
"f 	c #F2B177",
"g 	c #F3B177",
"h 	c #F1B076",
"i 	c #BF8654",
"j 	c #2A3959",
"k 	c #22304F",
"l 	c #22314F",
"m 	c #875A34",
"n 	c #EAAB73",
"o 	c #DA9B65",
"p 	c #BE8553",
"q 	c #324264",
"r 	c #202E4C",
"s 	c #2B1F45",
"t 	c #D2945F",
"u 	c #DB9C65",
"v 	c #EDAC73",
"w 	c #DCA16C",
"x 	c #F3B278",
"y 	c #DE9F68",
"z 	c #D3955F",
"A 	c #2A3958",
"B 	c #001D2C",
"C 	c #CD905C",
"D 	c #D69861",
"E 	c #F4B278",
"F 	c #E9A970",
"G 	c #D59760",
"H 	c #BF8554",
"I 	c #2E3C5D",
"J 	c #334466",
"K 	c #243251",
"L 	c #D4965F",
"M 	c #CC905B",
"N 	c #A9764A",
"O 	c #885C37",
"P 	c #D69862",
"Q 	c #B78051",
"R 	c #3E838F",
"S 	c #334264",
"T 	c #2B3A5A",
"U 	c #15223E",
"V 	c #0B2838",
"W 	c #EDAD73",
"X 	c #C78C5A",
"Y 	c #B67F50",
"Z 	c #44919B",
"` 	c #44929C",
" .	c #43929B",
"..	c #438F9A",
"+.	c #264D5E",
"@.	c #244A5C",
"#.	c #2D415F",
"$.	c #273555",
"%.	c #18203D",
"&.	c #2E4160",
"*.	c #542663",
"=.	c #D59660",
"-.	c #E0A169",
";.	c #C58D5C",
">.	c #BB8555",
",.	c #BE8757",
"'.	c #E4A46C",
").	c #D49661",
"!.	c #986B4D",
"~.	c #44929D",
"{.	c #45939D",
"].	c #45949E",
"^.	c #367581",
"/.	c #263555",
"(.	c #172844",
"_.	c #283757",
":.	c #263554",
"<.	c #5A2969",
"[.	c #D69760",
"}.	c #C08655",
"|.	c #C28855",
"1.	c #C18755",
"2.	c #D0935F",
"3.	c #375D75",
"4.	c #44919C",
"5.	c #3A7C87",
"6.	c #273655",
"7.	c #1A2846",
"8.	c #303F60",
"9.	c #293858",
"0.	c #3D204D",
"a.	c #E5A56C",
"b.	c #D59761",
"c.	c #DFA069",
"d.	c #F0AF75",
"e.	c #EBAC73",
"f.	c #62696A",
"g.	c #4F5B66",
"h.	c #3A7183",
"i.	c #387884",
"j.	c #1A2845",
"k.	c #1C2A48",
"l.	c #304061",
"m.	c #293A59",
"n.	c #D19561",
"o.	c #D29560",
"p.	c #D79962",
"q.	c #AF7C4F",
"r.	c #C9C96F",
"s.	c #D7D780",
"t.	c #C5C56A",
"u.	c #797B59",
"v.	c #4F8F94",
"w.	c #40919D",
"x.	c #3F919D",
"y.	c #43929C",
"z.	c #2D3D60",
"A.	c #00202C",
"B.	c #AF794B",
"C.	c #EAAA71",
"D.	c #D79B66",
"E.	c #D5D57F",
"F.	c #D3D37D",
"G.	c #CECD73",
"H.	c #A7B16E",
"I.	c #9CA96C",
"J.	c #9DAA6B",
"K.	c #619893",
"L.	c #42919B",
"M.	c #42929D",
"N.	c #98A76F",
"O.	c #9B9C4F",
"P.	c #61654B",
"Q.	c #172542",
"R.	c #D79C67",
"S.	c #DA9C65",
"T.	c #E4A56D",
"U.	c #E6A66E",
"V.	c #E0A36C",
"W.	c #B6B656",
"X.	c #D3D37C",
"Y.	c #D1D17B",
"Z.	c #CCCE7D",
"`.	c #609996",
" +	c #7F9E82",
".+	c #A5A854",
"++	c #A9AA4C",
"@+	c #8F9048",
"#+	c #2F3C59",
"$+	c #A37146",
"%+	c #D4955F",
"&+	c #B3B350",
"*+	c #B2B24F",
"=+	c #B9B95B",
"-+	c #CACA72",
";+	c #CACA71",
">+	c #CBCB72",
",+	c #C1C164",
"'+	c #989A3B",
")+	c #1E3A54",
"!+	c #314162",
"~+	c #A67246",
"{+	c #C38856",
"]+	c #B4B44F",
"^+	c #B2B24E",
"/+	c #7A7D2B",
"(+	c #2F4060",
"_+	c #5F3C4E",
":+	c #001F2E",
"                                      . . . . + + @ @ . . . . . ",
"                # # #             # # # # # # + + + + + . @ @ . ",
"# # # # $ $ $ $ $ $ $ $ % % % $ $ $ $ $ $ $             + + + . ",
"$ $ $ $ $ $ $ $ $ $ $ % % & % % % $ $ $ $ $ $ $ $ $ $ $ $ + @ . ",
"          $ $ $ $ $ % % & & & & % $ $ $ $ $ $ $ $ $     . + @ . ",
"    # # # # # # # % % & & * = & % % # # # # # # # # # # . + + @ ",
"  # # # # # % % % % & & - ; > , & % % # # # # # # # # # # # + + ",
"' # # # % % % & & & & ) & & ! ~ & & % % # # # # # # # # # # # . ",
"' $ $ % % & { & ] ^ & & & & & / ( & & % %                     . ",
"    % % & & _ : < [ } & | 1 & & & 2 & & % + . $ # # # # # # # . ",
"  % % & & 3 4 5 5 6 7 & 8 9 0 & a b c & % % + . .             . ",
"  % & & d e f g g h i & 8 9 9 9 j k l & & % % @ + .           . ",
"% % & m [ n f f f o p & 8 9 9 9 9 q r s & & % @ @ +           . ",
"% & & t u v w x y z p & A 9 9 9 9 9 9 r B & % % @ + . . % % % % ",
"% & C D w & & E F G H & & & I J 9 9 9 q K & & % % $ % % % & & & ",
"& & L M & N O x f P Q & & R & & q S 9 9 T U & & % % % & & & V & ",
"& L z W & X & x f P Y & Z `  ...+.@.#.9 9 $.%.& % & & & 8 &.*.& ",
"& =.-.;.>.,.'.f f ).!.& ..` ` ~.{.].^.j J 9 /.& & (._.$.:.<.& % ",
"& [.& }.|.1.4 f f 2.& & 3.4.` ` ` ` ` 5.& 9 S 6.& 7.8.9.0.& & % ",
"& a.N b.f c.P d.e.& & f.& g.h.Z ` ` ` ` i.& & j.k.l.m.& & % % % ",
"& n.o.p.x x b.-.q.& r.s.t.& u.v.w.x.y.` ` {.& & z.T A.& % % $ $ ",
"& B.1.C.C.4 D D.& & E.E.E.F.G.H.I.J.K.` L.M.N.O.P.Q.& & %   $ $ ",
"& & R.S.T.U.V.& & W.F.E.E.E.E.F.X.Y.Z.`. +.+++@+#+8.& % % # # $ ",
"% & $+z %+|.& & &+*+=+-+;+;+;+>+>+,+'+& & & & & )+!+& % %   # # ",
"% & & ~+{+& & ]+&+&+&+*+*+^+]+/+& & & & % % % & & (+& & %       ",
"% % & & & & & & & & & & _+& & & & % % % %   % % & & :+& % % # # ",
"  % % % % % % % % % % & & & % % % % # # # # # % % & & & & % $ ' ",
"    $ $ $ $ $ $ $ $ % % % % % $ $ $ $ $ $ # # # % % % & & %     ",
". .             $ $ $ # #   # # # # #   $ $ $ $ $ $ % % % %   . ",
". .   $ $ $ $ $ $ $ $ $ $ $ $ $ $ $     # # # $ $ $ $ $ $ . . . ",
"+ @ . . # # # # # # # # # # # $       $ $ $ $ $ $ $ $     . + + ",
". . . + . . . . . # # # # #                 . . . . @ @ @ + . . "};
