/* XPM */
static char * img_wall_xpm[] = {
"32 32 6 1",
" 	c #159CDA",
".	c #55B2DD",
"+	c #1590CD",
"@	c #80C1DF",
"#	c #EBE5E3",
"$	c #AACFE1",
"   ...........      ......      ",
"   ...  +....           ....    ",
" @  . +++++....        +++...  .",
" #   +++++++ ..       ++++++..@.",
"$#  +++++++++..       +++++++@$$",
"@$. ++++++++++.      ++++++++.@@",
".. +++++++++++ ..     ++++++  ..",
".. +++++++++++ .       ++++   ..",
"..  ++++++++++ ..             ..",
"... ++++++++++.#@.            ..",
"...  ++++++++ .$$@            ..",
" ..   ++++++  .@@.. +++++++   ..",
" ...         .......++++++++ .. ",
"   ..             .+++++++++... ",
" ......   .       +++.+++..$$$@ ",
".........$.       +++...#...... ",
".@.   ..$@.       ++++.$$.......",
"..     ..@.+      ++++.@.++++   ",
".     +++..++     ++++..+++++   ",
"     +++++++++     +++..++++    ",
"    +++++++++++     ++++++      ",
"    ++++++++++++     .+++       ",
"   +++++++++++++     .+++       ",
"   ++++++++++++++   . +++++     ",
"   +++++++.++++++  ...+++++++   ",
"   ++++++#$.+++++   ...++++++   ",
"   ++++++.$...+++   ...+++++++  ",
" .  ++++...++++++   ...++++++   ",
"  . ++++$$.+++++     ..++++++   ",
"   .....@.+++++       @@..++    ",
"       +...++          @@.......",
"        ....        .    ...... "};
