/* XPM */
static char * img_exit_xpm[] = {
"32 32 81 1",
" 	c #252525",
".	c #FF0000",
"+	c #E6DB1C",
"@	c #000000",
"#	c #3E78E0",
"$	c #081D43",
"%	c #9AF67B",
"&	c #98F878",
"*	c #82EF66",
"=	c #0F3780",
"-	c #505863",
";	c #3A3E45",
">	c #97F877",
",	c #94F873",
"'	c #4FD942",
")	c #8BF46D",
"!	c #96F975",
"~	c #79EA5F",
"{	c #9BF67D",
"]	c #83EF66",
"^	c #90F670",
"/	c #95F874",
"(	c #93F873",
"_	c #97F47A",
":	c #A2F088",
"<	c #95F974",
"[	c #7EED63",
"}	c #76E95C",
"|	c #5BDF49",
"1	c #5FE04B",
"2	c #74E65C",
"3	c #49D93B",
"4	c #7DED62",
"5	c #4ADA3C",
"6	c #7CEC61",
"7	c #73E95A",
"8	c #434008",
"9	c #42CD35",
"0	c #47D539",
"a	c #42CB34",
"b	c #57D64D",
"c	c #2EA722",
"d	c #1B8B10",
"e	c #3DC230",
"f	c #48D73A",
"g	c #2FAA24",
"h	c #1D8D12",
"i	c #2FAA23",
"j	c #47D639",
"k	c #54D749",
"l	c #1C8C10",
"m	c #30AB24",
"n	c #35B529",
"o	c #1F9014",
"p	c #3CC02F",
"q	c #2CA420",
"r	c #80821B",
"s	c #8C590C",
"t	c #97F976",
"u	c #B07923",
"v	c #81EE65",
"w	c #88F26A",
"x	c #8EF56F",
"y	c #9DF37E",
"z	c #B27923",
"A	c #3D830F",
"B	c #48D83A",
"C	c #AE7B24",
"D	c #B5773B",
"E	c #B3792B",
"F	c #B17822",
"G	c #258A1E",
"H	c #4BDA3D",
"I	c #4AD93C",
"J	c #42CB35",
"K	c #B47832",
"L	c #B5773E",
"M	c #B47838",
"N	c #B17823",
"O	c #B17923",
"P	c #AF7721",
"         .+.+.@@@@@@@+.+.##$$$$$",
"        .+@@@@@%@&*&@@@@++==$##$",
"----;;;.+@@&&&>,')!~&@%@@.  ===$",
";;;;;+.+@@&{!]&!^/!(_:<&@+;;;=#$",
"    +.@@@[&}[|[!![[[![[[@.+.+=#$",
"  --.@@1[2[[[[[[[[[[[[[[@@@@.==#",
" ---+@11331[31[45[3[1316[71@+-==",
"8---.@3313903535335a5313351@.--$",
"8;;;+@b33cdecf3cc3ghi33jcck@+  $",
"    .@@3ccclcm3ccccncccocp@@.+.+",
" ;+.+.@dccccdg3ccqcccdcdd@@@@@@.",
" +.@@@@@dcdddccccoccccdd@@&&&&@@",
"+.@@&&&@@ddddddrsddddd@@@1[!!t1@",
".@@[[&[[@@dddddusdddd@@c511[v[[@",
"@@11w^[xy@@@@@@zs@@@@@Ac5513B[5@",
"@c5511111CDEs@@Fs@ssssssGccfcc5@",
"@@c5HI3Jc5c@KLMzFMs@@@@@ddhcddc@",
"+@dcccccdd@@@@@zzs@@+.+@@@ddd@@@",
".@@dddddd@@+.+@Ns@@+.;.+.@@@@@.+",
"+.@@@@@@@@+.-.@Os@+.;;;;+.+.+.+;",
"$+.+.+.+.+.;;+@zs@.;;;;;;;;; ;;;",
"8$=#$;;  ;;;;.@Fs@+;;;;;;;; ; ;;",
" --==$    --;+@zN@.;;;;---   --;",
" -$$=$$$   -;.@Fs@+;;;;;-     --",
" --$$=$$$$  ;+@Fs@.;;;;;;       ",
"     $$=$$$  .@Fs@+       ------",
" ;;;;--$-$$ -+@Ns@.-------;;;;;8",
"  ;;;;;;;;;;+.@zs@+.;---        ",
"$$      ;;;+.@@Fs@@+.;;;;;;;;; $",
"$$ ;;;;;;;;.@@zFss@@+--;;;;;;$$$",
"=#$$-------+@szzPss@.;;;;;;  $==",
"$$$=$$$$$--.@@@@@@@@+ $$$$###=$$"};
