/* XPM */
static char * img_enemy_1_3_bonus_xpm[] = {
"32 32 37 1",
" 	c #252525",
".	c #081D43",
"+	c #0F3780",
"@	c #3E78E0",
"#	c #FF0000",
"$	c #505863",
"%	c #020001",
"&	c #3A3E45",
"*	c #4E0B0B",
"=	c #951515",
"-	c #EE2222",
";	c #C85050",
">	c #000000",
",	c #FF6666",
"'	c #EF2142",
")	c #464D56",
"!	c #071B40",
"~	c #363A41",
"{	c #4F5762",
"]	c #393D43",
"^	c #242424",
"/	c #F1A26D",
"(	c #F29B84",
"_	c #F7E0D1",
":	c #FFFFFF",
"<	c #5DBCB9",
"[	c #CE4C70",
"}	c #F39A88",
"|	c #6EB8BD",
"1	c #434008",
"2	c #D24984",
"3	c #CF4B77",
"4	c #DA2843",
"5	c #CF4C76",
"6	c #DA223E",
"7	c #A2494C",
"8	c #C04E4F",
"                   ....++@@.....",
"   #######$      $$$$$######.@@.",
"$$##%%%%%###&&&&&&&&###%%%%###+.",
"&##%%***%%%##&&&&&&##%%****%%##.",
"##%%*==-=*%%##&&&&&#%**==-=*%%##",
"#%%*=;--==*%%#&$&$##>**==--=*%%#",
"#%*=;,-=***>##&$&$#%%%%===-;=*%#",
"%%*-,;=*%%%%#$&$&$#####%==;,;*%%",
"%*=;,-*>%#### $&&   ##>-**-,;=*%",
"%*=--=%'=%#$)   ...!#>=->*=--=*%",
"%*=--=*=-%#&~&&&&&&{#>='%*=--=*%",
"%*=-=*>'-%#&]  &&  ^#>='%**=-=*%",
"%*=-=*'--%#####&&####>=''>*=-=*%",
"%*===%'-=%##%%####%##>=-'>*===*%",
"#%*=%'--=%##%,%##%,%#>=-''>***%#",
"#%;;>'-=%###%-%##%-%##%---->;;%#",
"#%;/;--=%#%%=-%%%%-=%%#>==-;/;%#",
"#%(_/==%#%_:<=-%%-=<:_%#%[-/_(%#",
"##%;/;%#%<:_:<=-;=<:_:<%#%;/;%##",
".#%%;%%#%<><_:*,,*:><:<%#%%;%%#&",
".#%}_;%#%|____*,,*____|%#%;_}%#&",
"1##%//;%#%;***=--=***;%#%;//%##&",
" $#%=//;%%_;==--====;_2%;//=%#$&",
" $#%/;==;/_///;==;///_/;==;/>#$$",
" $#%>//=;;;/__////__/;;;=///>## ",
"  #%'''%%;;;;;____;;;;;%%//'>>##",
" ##>'''%%3;/;;;;;;;;/;3%%''''>>>",
"##>''''4>%%5;;%%%%;;5%%#%%'/=''>",
"#>'''>'6'>%%%%####%%%%##>'';78=>",
"#>>>'>''>>#####&&######>'''=>>>>",
"####>>>'>##$$$$&   &&&##>>%%%###",
"...###>>>#$$$$        .#######.."};
