/* XPM */
static char * img_floor_xpm[] = {
"32 32 7 1",
" 	c #252525",
".	c #081D43",
"+	c #0F3780",
"@	c #3E78E0",
"#	c #505863",
"$	c #3A3E45",
"%	c #434008",
"                   ....++@@.....",
"        ###      ######+++++.@@.",
"####$$$$$$$$$$$$$$$$$$      +++.",
"$$$$$$$$$$$$$$$$$$$$$$$$$$$$$+@.",
"     $$$$$$$$$$$$$$$$$$$$$  .+@.",
"  ############$#$###########.++@",
" #############$#$#############++",
"%#############$#$##############.",
"%$$$$$$$$#    #$$              .",
"    #########   .....+.$#######.",
" $$$$$$$$$$$$$$$$$$###+..      .",
" $$$$$$$$$$$$  $$     +@+.     .",
"  ########$$$$$$$$$$$$.@@+     .",
"    ######$$$##$#######.@+..%$#.",
"     ########$$$$$$$$$$$$$  %   ",
" .           $$$$$$$$$$$$$$$%$$ ",
" ....$$$$$$$$$$$$$$$$$$$$$$$ $$$",
"..+..$$$$$$$$$$$$$$$$$$$$$$$ $$$",
".+++.###%##$$$$$$$$$$$$$#### ##$",
".+@@.$## #####$#$###$$$$$$$$ $$$",
"..+@.$$$ $$$$$$$$$$$$$$$$$$$ $$$",
"%.+@.$$  $$$$$$$$$$$$$$$$$$ $ $$",
" ##++.    ##$$$$$$$$$$$###   ##$",
" #..+...   #$$$$$$$$$$$$#     ##",
" ##..+....  $$$$$$$$$$$$$       ",
"     ..+...    ###        ######",
" $$$$##.#.. ##############$$$$$%",
"  $$$$$$$$$$ $$$$$$$$###        ",
"..      $$$## ##### $$$$$$$$$$ .",
".. $$$$$$$$$$$$$$$  ###$$$$$$...",
"+@..###########$   $$$$$$$$  .++",
"...+.....#####        ....@@@+.."};
